<svg width="30" height="30" viewBox="0 0 30 30" fill="none" xmlns="http://www.w3.org/2000/svg">
<path d="M8.03602 3.0163C8.37647 2.6262 8.33623 2.03397 7.94613 1.69352C7.55605 1.35307 6.96382 1.39331 6.62336 1.78341L5.00861 3.63362C4.09265 4.68312 3.57486 6.02127 3.54582 7.41396L3.47497 10.811C3.46417 11.3287 3.87506 11.7571 4.39272 11.7679C4.91037 11.7787 5.33876 11.3678 5.34956 10.8501L5.42041 7.45306C5.44028 6.50016 5.79456 5.5846 6.42126 4.86651L8.03602 3.0163Z" fill="#FF6B72"/>
<path fill-rule="evenodd" clip-rule="evenodd" d="M7.79625 9.626C7.96988 6.85007 10.2719 4.68756 13.0532 4.68756H13.75V3.75006C13.75 3.05971 14.3096 2.50006 15 2.50006C15.6904 2.50006 16.25 3.05971 16.25 3.75006V4.68756H16.9467C19.7281 4.68756 22.0301 6.85007 22.2037 9.62599L22.48 14.0429C22.5852 15.7269 23.1506 17.3496 24.1145 18.7345C24.9854 19.9859 24.21 21.7141 22.6964 21.8957L18.4375 22.4067V23.7501C18.4375 25.6485 16.8985 27.1876 15 27.1876C13.1015 27.1876 11.5625 25.6485 11.5625 23.7501V22.4067L7.30358 21.8957C5.78991 21.7141 5.01464 19.9859 5.88549 18.7345C6.84931 17.3496 7.41468 15.7269 7.52 14.0429L7.79625 9.626ZM13.0532 6.56256C11.262 6.56256 9.77941 7.95527 9.6676 9.74304L9.39135 14.1599C9.2646 16.1862 8.58429 18.1391 7.42448 19.8056C7.36153 19.896 7.41756 20.021 7.52698 20.0341L12.1991 20.5947C14.0596 20.818 15.9402 20.818 17.8009 20.5947L22.473 20.0341C22.5824 20.021 22.6385 19.896 22.5755 19.8056C21.4156 18.1391 20.7354 16.1862 20.6086 14.1599L20.3324 9.74304C20.2205 7.95527 18.738 6.56256 16.9467 6.56256H13.0532ZM15 25.3126C14.137 25.3126 13.4375 24.613 13.4375 23.7501V22.8126H16.5625V23.7501C16.5625 24.613 15.863 25.3126 15 25.3126Z" fill="#FF6B72"/>
<path d="M22.0539 1.69352C21.6638 2.03397 21.6235 2.6262 21.964 3.0163L23.5788 4.86651C24.2055 5.5846 24.5598 6.50016 24.5796 7.45306L24.6505 10.8501C24.6613 11.3678 25.0896 11.7787 25.6073 11.7679C26.125 11.7571 26.5359 11.3287 26.525 10.811L26.4541 7.41396C26.4251 6.02127 25.9074 4.68312 24.9914 3.63362L23.3766 1.78341C23.0361 1.39331 22.444 1.35307 22.0539 1.69352Z" fill="#FF6B72"/>
</svg>
